<svg xmlns="http://www.w3.org/2000/svg" viewBox="0 0 64 64" role="img" aria-label="Visa guide favicon">
  <defs>
    <linearGradient id="bg" x1="8" y1="6" x2="56" y2="58" gradientUnits="userSpaceOnUse">
      <stop offset="0" stop-color="#123A7A"/>
      <stop offset="1" stop-color="#0F766E"/>
    </linearGradient>
    <linearGradient id="passport" x1="16" y1="16" x2="40" y2="50" gradientUnits="userSpaceOnUse">
      <stop offset="0" stop-color="#FFFFFF"/>
      <stop offset="1" stop-color="#EAF2FF"/>
    </linearGradient>
    <filter id="shadow" x="-20%" y="-20%" width="140%" height="140%">
      <feDropShadow dx="0" dy="2" stdDeviation="2" flood-opacity="0.18"/>
    </filter>
  </defs>

  <rect x="4" y="4" width="56" height="56" rx="16" fill="url(#bg)"/>

  <g filter="url(#shadow)">
    <rect x="16" y="14" width="24" height="36" rx="5" fill="url(#passport)"/>
    <rect x="18.5" y="14" width="3.5" height="36" rx="1.75" fill="#D7E5FF"/>
    <circle cx="28" cy="31" r="7.25" fill="none" stroke="#123A7A" stroke-width="2"/>
    <path d="M20.75 31H35.25M28 23.75C25.6 26 24.75 28.4 24.75 31c0 2.6.85 5 3.25 7.25M28 23.75c2.4 2.25 3.25 4.65 3.25 7.25 0 2.6-.85 5-3.25 7.25" fill="none" stroke="#123A7A" stroke-width="1.5" stroke-linecap="round"/>
  </g>

  <g filter="url(#shadow)">
    <circle cx="45.5" cy="44.5" r="10.5" fill="#F4B942"/>
    <path d="M40.5 44.5l3.2 3.2 6.8-7.2" fill="none" stroke="#0B1F44" stroke-width="2.8" stroke-linecap="round" stroke-linejoin="round"/>
  </g>

  <path d="M43 16.5h8.5" stroke="#D7F7F1" stroke-width="2.4" stroke-linecap="round" opacity="0.9"/>
  <path d="M47.25 12.25V20.75" stroke="#D7F7F1" stroke-width="2.4" stroke-linecap="round" opacity="0.9"/>
</svg>
